<?xml version="1.0" standalone="no"?>
<!DOCTYPE svg PUBLIC "-//W3C//DTD SVG 20010904//EN"
 "http://www.w3.org/TR/2001/REC-SVG-20010904/DTD/svg10.dtd">
<svg version="1.0" xmlns="http://www.w3.org/2000/svg"
 width="700.000000pt" height="700.000000pt" viewBox="0 0 700.000000 700.000000"
 preserveAspectRatio="xMidYMid meet">
<metadata>
Created by potrace 1.14, written by Peter Selinger 2001-2017
</metadata>
<g transform="translate(0.000000,700.000000) scale(0.100000,-0.100000)"
fill="#000000" stroke="none">
<path d="M3215 6819 c-38 -4 -95 -10 -125 -13 -288 -30 -663 -132 -930 -253
-454 -206 -880 -522 -1195 -887 -360 -419 -631 -986 -735 -1546 -28 -145 -30
-158 -36 -215 -3 -27 -8 -63 -10 -80 -11 -57 -13 -541 -3 -625 38 -330 101
-597 209 -886 240 -640 661 -1173 1235 -1566 475 -324 1025 -522 1570 -565
154 -12 547 -9 675 6 590 67 1108 268 1587 618 551 402 939 915 1166 1543 96
265 151 497 193 813 9 73 13 549 4 617 -4 36 -10 88 -13 115 -27 265 -134 655
-260 947 -107 248 -289 554 -432 727 -207 251 -396 431 -647 617 -376 279
-823 481 -1268 574 -136 28 -216 39 -420 59 -104 10 -469 10 -565 0z"/>
</g>
</svg>
